<?xml version="1.0" encoding="utf-8"?>
<!-- Generator: Adobe Illustrator 26.3.1, SVG Export Plug-In . SVG Version: 6.00 Build 0)  -->
<svg version="1.1" id="OBJECTS" xmlns="http://www.w3.org/2000/svg" xmlns:xlink="http://www.w3.org/1999/xlink" x="0px" y="0px"
	 viewBox="0 0 750 500" style="enable-background:new 0 0 750 500;" xml:space="preserve">
<style type="text/css">
	.st0{fill:none;}
	.st1{fill:#F1F3F3;}
	.st2{fill:#C2C7C8;}
	.st3{fill:#DEDEDE;}
	.st4{opacity:0.5;}
	.st5{fill:#FFFFFF;}
	.st6{fill:url(#Nueva_muestra_de_motivo_4);}
	.st7{fill:url(#SVGID_00000057858899791256417540000015114199708780555185_);}
	.st8{opacity:0.7;}
	.st9{fill:#2E3038;}
	.st10{font-family:'Montserrat-Regular';}
	.st11{font-size:8.0044px;}
	.st12{font-family:'Montserrat-Bold';}
	.st13{font-size:8.7361px;}
	.st14{opacity:0.5;fill:#FFFFFF;}
</style>
<pattern  x="125" width="24" height="24" patternUnits="userSpaceOnUse" id="Nueva_muestra_de_motivo_4" viewBox="0 -24 24 24" style="overflow:visible;">
	<g>
		<rect id="XMLID_61_" y="-24" class="st0" width="24" height="24"/>
		<rect id="XMLID_59_" y="-24" class="st1" width="12" height="12"/>
		<rect id="XMLID_56_" x="12" y="-12" class="st1" width="12" height="12"/>
		<rect id="XMLID_51_" x="12" y="-24" class="st2" width="12" height="12"/>
		<rect id="XMLID_66_" y="-12" class="st2" width="12" height="12"/>
	</g>
</pattern>
<g>
	<g>
		<g>
			<rect x="76.9" y="59.2" class="st3" width="596.3" height="381.7"/>
		</g>
		<g class="st4">
			<g>
				<path class="st5" d="M259.2,116.3c1.7,0,3.1-1.4,3.1-3.1c0-1.7-1.4-3.1-3.1-3.1c-1.7,0-3.1,1.4-3.1,3.1
					C256.1,114.9,257.5,116.3,259.2,116.3z"/>
				<path class="st5" d="M259.2,95.4c1.7,0,3.1-1.4,3.1-3.1c0-1.7-1.4-3.1-3.1-3.1c-1.7,0-3.1,1.4-3.1,3.1
					C256.1,94,257.5,95.4,259.2,95.4z"/>
				<path class="st5" d="M256.1,134.2c0,1.7,1.4,3.1,3.1,3.1c1.7,0,3.1-1.4,3.1-3.1c0-1.7-1.4-3.1-3.1-3.1
					C257.5,131,256.1,132.4,256.1,134.2z"/>
				<path class="st5" d="M245.6,123.7c0,1.1,0.6,2,1.4,2.6c0.5,0.3,1.1,0.5,1.8,0.5c1.7,0,3.1-1.4,3.1-3.1c0-1.7-1.4-3.1-3.1-3.1
					c-0.7,0-1.3,0.2-1.8,0.5C246.1,121.6,245.6,122.6,245.6,123.7z"/>
				<path class="st5" d="M247,105.3c0.5,0.3,1.1,0.5,1.8,0.5c1.7,0,3.1-1.4,3.1-3.1c0-1.7-1.4-3.1-3.1-3.1c-0.7,0-1.3,0.2-1.8,0.5
					c-0.8,0.6-1.4,1.5-1.4,2.6C245.6,103.8,246.1,104.8,247,105.3z"/>
				<path class="st5" d="M227.8,105.9c1.7,0,3.1-1.4,3.1-3.1c0-1.7-1.4-3.1-3.1-3.1c-1.7,0-3.1,1.4-3.1,3.1
					C224.6,104.4,226,105.9,227.8,105.9z"/>
				<path class="st5" d="M217.3,116.3c1.7,0,3.1-1.4,3.1-3.1c0-1.7-1.4-3.1-3.1-3.1c-1.7,0-3.1,1.4-3.1,3.1
					C214.1,114.9,215.5,116.3,217.3,116.3z"/>
				<path class="st5" d="M238.2,116.3c1.7,0,3.1-1.4,3.1-3.1c0-1.7-1.4-3.1-3.1-3.1c-1.7,0-3.1,1.4-3.1,3.1
					C235.1,114.9,236.5,116.3,238.2,116.3z"/>
				<path class="st5" d="M217.3,95.4c1.7,0,3.1-1.4,3.1-3.1c0-1.7-1.4-3.1-3.1-3.1c-1.7,0-3.1,1.4-3.1,3.1
					C214.1,94,215.5,95.4,217.3,95.4z"/>
				<path class="st5" d="M238.2,95.4c1.7,0,3.1-1.4,3.1-3.1c0-1.7-1.4-3.1-3.1-3.1c-1.7,0-3.1,1.4-3.1,3.1
					C235.1,94,236.5,95.4,238.2,95.4z"/>
				<path class="st5" d="M209.4,121.9c-0.6-0.8-1.5-1.4-2.6-1.4c-0.7,0-1.3,0.2-1.8,0.5c-0.8,0.6-1.4,1.5-1.4,2.6
					c0,1.1,0.5,2,1.4,2.6c0.5,0.3,1.1,0.5,1.8,0.5c1.1,0,2-0.6,2.6-1.4c0.3-0.5,0.5-1.1,0.5-1.8C209.9,123,209.7,122.4,209.4,121.9z
					"/>
				<path class="st5" d="M214.1,134.2c0,1.7,1.4,3.1,3.1,3.1c1.7,0,3.1-1.4,3.1-3.1c0-1.7-1.4-3.1-3.1-3.1
					C215.5,131,214.1,132.4,214.1,134.2z"/>
				<path class="st5" d="M235.1,134.2c0,1.7,1.4,3.1,3.1,3.1c1.7,0,3.1-1.4,3.1-3.1c0-1.7-1.4-3.1-3.1-3.1
					C236.5,131,235.1,132.4,235.1,134.2z"/>
				<path class="st5" d="M227.8,126.8c1.7,0,3.1-1.4,3.1-3.1c0-1.7-1.4-3.1-3.1-3.1c-1.7,0-3.1,1.4-3.1,3.1
					C224.6,125.4,226,126.8,227.8,126.8z"/>
				<path class="st5" d="M205,105.3c0.5,0.3,1.1,0.5,1.8,0.5c1.1,0,2-0.5,2.6-1.4c0.3-0.5,0.5-1.1,0.5-1.8c0-0.7-0.2-1.3-0.5-1.8
					c-0.6-0.8-1.5-1.4-2.6-1.4c-0.7,0-1.3,0.2-1.8,0.5c-0.8,0.6-1.4,1.5-1.4,2.6C203.6,103.8,204.2,104.8,205,105.3z"/>
				<path class="st5" d="M185.8,105.9c1.7,0,3.1-1.4,3.1-3.1c0-1.7-1.4-3.1-3.1-3.1c-1.7,0-3.1,1.4-3.1,3.1
					C182.7,104.4,184.1,105.9,185.8,105.9z"/>
				<path class="st5" d="M175.3,116.3c1.7,0,3.1-1.4,3.1-3.1c0-1.7-1.4-3.1-3.1-3.1c-1.7,0-3.1,1.4-3.1,3.1
					C172.2,114.9,173.6,116.3,175.3,116.3z"/>
				<path class="st5" d="M196.3,116.3c1.7,0,3.1-1.4,3.1-3.1c0-1.7-1.4-3.1-3.1-3.1c-1.7,0-3.1,1.4-3.1,3.1
					C193.2,114.9,194.6,116.3,196.3,116.3z"/>
				<path class="st5" d="M175.3,95.4c1.7,0,3.1-1.4,3.1-3.1c0-1.7-1.4-3.1-3.1-3.1c-1.7,0-3.1,1.4-3.1,3.1
					C172.2,94,173.6,95.4,175.3,95.4z"/>
				<path class="st5" d="M196.3,95.4c1.7,0,3.1-1.4,3.1-3.1c0-1.7-1.4-3.1-3.1-3.1c-1.7,0-3.1,1.4-3.1,3.1
					C193.2,94,194.6,95.4,196.3,95.4z"/>
				<path class="st5" d="M167.5,121.9c-0.6-0.8-1.5-1.4-2.6-1.4c-0.7,0-1.3,0.2-1.8,0.5c-0.8,0.6-1.4,1.5-1.4,2.6
					c0,1.1,0.5,2,1.4,2.6c0.5,0.3,1.1,0.5,1.8,0.5c1.1,0,2-0.6,2.6-1.4c0.3-0.5,0.5-1.1,0.5-1.8C168,123,167.8,122.4,167.5,121.9z"
					/>
				<path class="st5" d="M172.2,134.2c0,1.7,1.4,3.1,3.1,3.1c1.7,0,3.1-1.4,3.1-3.1c0-1.7-1.4-3.1-3.1-3.1
					C173.6,131,172.2,132.4,172.2,134.2z"/>
				<path class="st5" d="M193.2,134.2c0,1.7,1.4,3.1,3.1,3.1c1.7,0,3.1-1.4,3.1-3.1c0-1.7-1.4-3.1-3.1-3.1
					C194.6,131,193.2,132.4,193.2,134.2z"/>
				<path class="st5" d="M185.8,126.8c1.7,0,3.1-1.4,3.1-3.1c0-1.7-1.4-3.1-3.1-3.1c-1.7,0-3.1,1.4-3.1,3.1
					C182.7,125.4,184.1,126.8,185.8,126.8z"/>
				<path class="st5" d="M163.1,105.3c0.5,0.3,1.1,0.5,1.8,0.5c1.1,0,2-0.5,2.6-1.4c0.3-0.5,0.5-1.1,0.5-1.8c0-0.7-0.2-1.3-0.5-1.8
					c-0.6-0.8-1.5-1.4-2.6-1.4c-0.7,0-1.3,0.2-1.8,0.5c-0.8,0.6-1.4,1.5-1.4,2.6C161.7,103.8,162.3,104.8,163.1,105.3z"/>
				<path class="st5" d="M143.9,105.9c1.7,0,3.1-1.4,3.1-3.1c0-1.7-1.4-3.1-3.1-3.1c-1.7,0-3.1,1.4-3.1,3.1
					C140.7,104.4,142.1,105.9,143.9,105.9z"/>
				<path class="st5" d="M133.4,116.3c1.7,0,3.1-1.4,3.1-3.1c0-1.7-1.4-3.1-3.1-3.1c-1.7,0-3.1,1.4-3.1,3.1
					C130.3,114.9,131.7,116.3,133.4,116.3z"/>
				<path class="st5" d="M154.4,116.3c1.7,0,3.1-1.4,3.1-3.1c0-1.7-1.4-3.1-3.1-3.1c-1.7,0-3.1,1.4-3.1,3.1
					C151.2,114.9,152.6,116.3,154.4,116.3z"/>
				<path class="st5" d="M133.4,95.4c1.7,0,3.1-1.4,3.1-3.1c0-1.7-1.4-3.1-3.1-3.1c-1.7,0-3.1,1.4-3.1,3.1
					C130.3,94,131.7,95.4,133.4,95.4z"/>
				<path class="st5" d="M154.4,95.4c1.7,0,3.1-1.4,3.1-3.1c0-1.7-1.4-3.1-3.1-3.1c-1.7,0-3.1,1.4-3.1,3.1
					C151.2,94,152.6,95.4,154.4,95.4z"/>
				<path class="st5" d="M125.1,121.5c-0.6-0.6-1.4-0.9-2.2-0.9c-0.7,0-1.3,0.2-1.8,0.5c-0.8,0.6-1.4,1.5-1.4,2.6
					c0,1.1,0.5,2,1.4,2.6c0.5,0.3,1.1,0.5,1.8,0.5c0.9,0,1.7-0.4,2.2-0.9c0.6-0.6,0.9-1.4,0.9-2.2
					C126.1,122.8,125.7,122,125.1,121.5z"/>
				<path class="st5" d="M130.3,134.2c0,1.7,1.4,3.1,3.1,3.1c1.7,0,3.1-1.4,3.1-3.1c0-1.7-1.4-3.1-3.1-3.1
					C131.7,131,130.3,132.4,130.3,134.2z"/>
				<path class="st5" d="M151.2,134.2c0,1.7,1.4,3.1,3.1,3.1c1.7,0,3.1-1.4,3.1-3.1c0-1.7-1.4-3.1-3.1-3.1
					C152.6,131,151.2,132.4,151.2,134.2z"/>
				<path class="st5" d="M143.9,126.8c1.7,0,3.1-1.4,3.1-3.1c0-1.7-1.4-3.1-3.1-3.1c-1.7,0-3.1,1.4-3.1,3.1
					C140.7,125.4,142.1,126.8,143.9,126.8z"/>
				<path class="st5" d="M121.2,105.3c0.5,0.3,1.1,0.5,1.8,0.5c0.9,0,1.7-0.4,2.2-0.9c0.6-0.6,0.9-1.4,0.9-2.2
					c0-0.9-0.4-1.7-0.9-2.2c-0.6-0.6-1.4-0.9-2.2-0.9c-0.7,0-1.3,0.2-1.8,0.5c-0.8,0.6-1.4,1.5-1.4,2.6
					C119.8,103.8,120.3,104.8,121.2,105.3z"/>
				<path class="st5" d="M102,105.9c1.7,0,3.1-1.4,3.1-3.1c0-1.7-1.4-3.1-3.1-3.1c-1.7,0-3.1,1.4-3.1,3.1
					C98.8,104.4,100.2,105.9,102,105.9z"/>
				<path class="st5" d="M91.5,116.3c1.7,0,3.1-1.4,3.1-3.1c0-1.7-1.4-3.1-3.1-3.1c-1.7,0-3.1,1.4-3.1,3.1
					C88.3,114.9,89.7,116.3,91.5,116.3z"/>
				<path class="st5" d="M112.4,116.3c1.7,0,3.1-1.4,3.1-3.1c0-1.7-1.4-3.1-3.1-3.1c-1.7,0-3.1,1.4-3.1,3.1
					C109.3,114.9,110.7,116.3,112.4,116.3z"/>
				<path class="st5" d="M91.5,95.4c1.7,0,3.1-1.4,3.1-3.1c0-1.7-1.4-3.1-3.1-3.1c-1.7,0-3.1,1.4-3.1,3.1
					C88.3,94,89.7,95.4,91.5,95.4z"/>
				<path class="st5" d="M112.4,95.4c1.7,0,3.1-1.4,3.1-3.1c0-1.7-1.4-3.1-3.1-3.1c-1.7,0-3.1,1.4-3.1,3.1
					C109.3,94,110.7,95.4,112.4,95.4z"/>
				<path class="st5" d="M88.3,134.2c0,1.7,1.4,3.1,3.1,3.1c1.7,0,3.1-1.4,3.1-3.1c0-1.7-1.4-3.1-3.1-3.1
					C89.7,131,88.3,132.4,88.3,134.2z"/>
				<path class="st5" d="M109.3,134.2c0,1.7,1.4,3.1,3.1,3.1c1.7,0,3.1-1.4,3.1-3.1c0-1.7-1.4-3.1-3.1-3.1
					C110.7,131,109.3,132.4,109.3,134.2z"/>
				<path class="st5" d="M102,126.8c1.7,0,3.1-1.4,3.1-3.1c0-1.7-1.4-3.1-3.1-3.1c-1.7,0-3.1,1.4-3.1,3.1
					C98.8,125.4,100.2,126.8,102,126.8z"/>
			</g>
		</g>
		<g>
			<g>
				<polygon class="st6" points="411.6,59.2 314.8,440.8 673.1,440.8 673.1,59.2 				"/>
				<g>
					<defs>
						<polygon id="SVGID_1_" points="411.6,59.2 314.8,440.8 673.1,440.8 673.1,59.2 						"/>
					</defs>
					<clipPath id="SVGID_00000159443408409631628270000003051445839860119473_">
						<use xlink:href="#SVGID_1_"  style="overflow:visible;"/>
					</clipPath>
				</g>
			</g>
			
				<linearGradient id="SVGID_00000079479728427417084540000004678510138613858464_" gradientUnits="userSpaceOnUse" x1="388.9046" y1="251.1838" x2="314.3971" y2="239.1253">
				<stop  offset="0" style="stop-color:#FFFFFF"/>
				<stop  offset="1" style="stop-color:#000000"/>
			</linearGradient>
			<polygon style="fill:url(#SVGID_00000079479728427417084540000004678510138613858464_);" points="411.6,59.2 314.8,440.8 
				354.4,440.8 448.4,59.2 			"/>
		</g>
		<g class="st8">
			<g>
				<path class="st5" d="M673.1,141.9v1.5c-3.2-0.8-6.5-1.9-9.6-3c0,0-0.1,0-0.1,0c-0.1,0-0.2-0.1-0.3-0.1c-0.4-0.1-0.7-0.3-1.1-0.4
					c0,0,0,0,0,0c-0.1,0-0.1-0.1-0.2-0.1c-0.1,0-0.2-0.1-0.4-0.1c-0.1,0-0.3-0.1-0.4-0.2c-0.1,0-0.2-0.1-0.4-0.1
					c-0.2-0.1-0.5-0.2-0.8-0.3c-0.1,0-0.2-0.1-0.4-0.2c-0.1,0-0.3-0.1-0.4-0.2c-0.7-0.3-1.4-0.6-2.1-0.9c0,0-0.1,0-0.1,0
					c-0.1,0-0.2-0.1-0.3-0.1c0,0,0,0,0,0c0,0,0,0,0,0c0,0,0,0-0.1,0c0,0-0.1,0-0.2-0.1c-0.1-0.1-0.3-0.1-0.4-0.2
					c-0.5-0.2-0.9-0.5-1.4-0.7c-0.8-0.4-1.7-0.8-2.5-1.3c-3.4-1.8-6.7-3.8-9.9-5.9c-4.6-3.2-9-6.8-13-10.7
					c-15.9-15.7-26.2-37.1-28.7-59.3h1.5c2.5,21.8,12.6,42.9,28.2,58.3c8.4,8.3,18.4,14.9,29.3,19.6c0.1,0.1,0.3,0.1,0.4,0.2
					c0.1,0.1,0.3,0.1,0.4,0.2c0.2,0.1,0.5,0.2,0.8,0.3c0.1,0.1,0.2,0.1,0.4,0.2c0.1,0.1,0.3,0.1,0.4,0.2c0.1,0.1,0.3,0.1,0.4,0.2
					c0.1,0,0.2,0.1,0.3,0.1c0.1,0.1,0.2,0.1,0.3,0.1c0.2,0.1,0.4,0.2,0.7,0.3c0.1,0,0.1,0,0.2,0.1c0.1,0.1,0.3,0.1,0.4,0.2
					c0,0,0.1,0,0.1,0c0.2,0.1,0.3,0.1,0.5,0.2c0.3,0.1,0.6,0.2,0.9,0.3c0.4,0.1,0.7,0.3,1.1,0.4c0.5,0.2,1,0.3,1.5,0.5
					c0.7,0.2,1.4,0.5,2.1,0.7c0,0,0,0,0,0C671.1,141.3,672.1,141.6,673.1,141.9z"/>
			</g>
			<g>
				<path class="st5" d="M673.1,141.2v1.5c-3.2-0.6-6.4-1.4-9.6-2.4c0,0-0.1,0-0.1,0c-0.2-0.1-0.5-0.1-0.7-0.2
					c-0.6-0.2-1.2-0.4-1.7-0.6c0,0,0,0,0,0c-0.1,0-0.2-0.1-0.2-0.1c-0.1,0-0.2-0.1-0.4-0.1c-0.1,0-0.3-0.1-0.4-0.1
					c-0.3-0.1-0.6-0.2-0.9-0.3c-0.1,0-0.2-0.1-0.3-0.1c-0.1,0-0.3-0.1-0.4-0.2c-0.9-0.3-1.8-0.7-2.8-1c-0.1,0-0.2-0.1-0.3-0.1h0
					c0,0-0.1,0-0.1,0h0c-0.2-0.1-0.5-0.2-0.7-0.3c-0.5-0.2-1-0.4-1.6-0.7c-1.2-0.5-2.3-1-3.5-1.6c-3.3-1.6-6.6-3.4-9.7-5.3
					c-4.6-2.9-9-6.2-13.1-9.8c-17.3-15.6-28.7-37.5-31.8-60.5h1.5c3.1,22.7,14.2,44.2,31.3,59.4c4.4,4,9.3,7.5,14.4,10.6
					c5.3,3.1,10.8,5.8,16.6,7.9c0.1,0.1,0.3,0.1,0.4,0.2c0.1,0.1,0.2,0.1,0.4,0.1c0.3,0.1,0.6,0.2,0.9,0.3c0.1,0.1,0.3,0.1,0.4,0.1
					c0.1,0,0.3,0.1,0.4,0.1c0.1,0,0.2,0.1,0.3,0.1c0,0,0.1,0,0.1,0c0.1,0,0.2,0.1,0.3,0.1c0.2,0.1,0.5,0.2,0.7,0.2
					c0.2,0.1,0.5,0.1,0.7,0.2c0,0,0.1,0,0.1,0c0,0,0,0,0,0c0.2,0.1,0.5,0.1,0.7,0.2c0,0,0.1,0,0.1,0c0.2,0.1,0.4,0.1,0.6,0.2
					c0.4,0.1,0.8,0.2,1.2,0.3c0.5,0.1,1,0.3,1.5,0.4c0.8,0.2,1.5,0.4,2.3,0.6C670.8,140.8,671.9,141,673.1,141.2z"/>
			</g>
			<g>
				<path class="st5" d="M673.1,140.6v1.5c-3.4-0.5-6.8-1.1-10.1-1.9c-0.1,0-0.2-0.1-0.3-0.1c-0.9-0.2-1.9-0.5-2.8-0.7c0,0,0,0,0,0
					c-0.1,0-0.2,0-0.3-0.1c-0.1,0-0.2-0.1-0.3-0.1c0,0,0,0,0,0c-0.1,0-0.1,0-0.2,0c-0.3-0.1-0.5-0.1-0.8-0.2c-0.1,0-0.2-0.1-0.3-0.1
					c-0.1,0-0.3-0.1-0.4-0.1c-1.3-0.4-2.5-0.8-3.7-1.2h0c0,0-0.1,0-0.1,0c0,0-0.1,0-0.1,0c-0.2-0.1-0.5-0.2-0.7-0.2
					c-0.6-0.2-1.1-0.4-1.7-0.6c-1.2-0.5-2.5-1-3.7-1.5c-3.8-1.6-7.5-3.5-11.1-5.6c0,0-0.1,0-0.1-0.1c-4.2-2.5-8.3-5.3-12.1-8.5
					c-18.7-15.4-31.2-37.8-34.8-61.7h1.5c3.6,23.5,15.9,45.4,34.3,60.6c4.5,3.7,9.4,7,14.5,9.8c3.9,2.2,8,4,12.2,5.6
					c1.9,0.7,3.9,1.4,5.9,2c0.1,0,0.3,0.1,0.4,0.1c0.1,0,0.2,0.1,0.4,0.1c0.3,0.1,0.6,0.2,1,0.3c0.1,0,0.1,0,0.2,0
					c0.1,0,0.1,0,0.2,0.1c0.1,0,0.2,0.1,0.3,0.1c0,0,0.1,0,0.1,0c0.4,0.1,0.8,0.2,1.2,0.3c0.3,0.1,0.5,0.1,0.8,0.2
					c0.3,0.1,0.6,0.1,0.8,0.2c0,0,0.1,0,0.1,0c0,0,0,0,0,0c0.1,0,0.2,0,0.3,0.1c0.5,0.1,1,0.2,1.5,0.4c0.5,0.1,1.1,0.2,1.6,0.3h0
					c0.8,0.2,1.5,0.3,2.3,0.5C670.4,140.2,671.8,140.4,673.1,140.6z"/>
			</g>
			<g>
				<path class="st5" d="M673.1,139.9v1.5c-1-0.1-2-0.2-3-0.3c0,0,0,0,0,0c-2.7-0.3-5.5-0.8-8.2-1.3c0,0,0,0,0,0
					c-0.3-0.1-0.6-0.1-0.9-0.2c0,0,0,0,0,0c0,0-0.1,0-0.1,0c-0.2,0-0.3-0.1-0.5-0.1c-0.2,0-0.3-0.1-0.5-0.1c-0.2,0-0.3-0.1-0.5-0.1
					c0,0,0,0,0,0c0,0,0,0,0,0c-0.1,0-0.1,0-0.2,0c-0.3-0.1-0.7-0.1-1-0.2c-0.1,0-0.3-0.1-0.4-0.1c-0.2,0-0.3-0.1-0.5-0.1
					c-1.5-0.4-2.9-0.8-4.4-1.2c0,0-0.1,0-0.2,0c-0.1,0-0.3-0.1-0.5-0.1c0,0-0.1,0-0.1,0c-0.5-0.2-1.1-0.3-1.6-0.5
					c-1.2-0.4-2.5-0.8-3.7-1.3c-4.1-1.5-8-3.2-11.8-5.2c0,0,0,0-0.1,0c-4.5-2.4-8.9-5.1-13-8.2c-19.8-15-33.6-38.2-37.9-62.9h1.5
					c4.3,24.2,17.8,47,37.3,61.7c4.3,3.2,8.8,6,13.6,8.5c0,0,0.1,0.1,0.1,0.1c4.1,2.1,8.4,3.9,12.8,5.4c1.7,0.6,3.3,1.1,5,1.6
					c1,0.3,2,0.6,3,0.8c0.1,0,0.3,0.1,0.4,0.1c0.1,0,0.2,0.1,0.4,0.1c0.4,0.1,0.8,0.2,1.2,0.3h0.1c0.1,0,0.1,0,0.2,0
					c0.1,0,0.1,0,0.2,0.1c0,0,0.1,0,0.1,0c0.2,0,0.3,0.1,0.5,0.1c0.2,0,0.4,0.1,0.6,0.1c0.1,0,0.2,0,0.3,0.1c0,0,0.1,0,0.1,0
					c0.1,0,0.3,0.1,0.4,0.1c0.2,0,0.3,0.1,0.5,0.1c0.2,0,0.4,0.1,0.6,0.1c0.4,0.1,0.8,0.2,1.2,0.2c0.8,0.1,1.6,0.3,2.5,0.4
					c0.9,0.1,1.8,0.3,2.8,0.4C670.6,139.6,671.9,139.8,673.1,139.9z"/>
			</g>
			<g>
				<path class="st5" d="M673.1,139.2v1.5c-1.2,0-2.3-0.1-3.5-0.2c-0.5,0-1.1-0.1-1.6-0.1c-2.1-0.2-4.2-0.4-6.3-0.7
					c-0.2,0-0.5-0.1-0.7-0.1c0,0-0.1,0-0.1,0c-0.3,0-0.6-0.1-0.9-0.1c0,0-0.1,0-0.1,0c-0.2,0-0.4-0.1-0.6-0.1c-0.1,0-0.3,0-0.4-0.1
					c0,0,0,0,0,0l-1.4-0.3c-0.1,0-0.2,0-0.3-0.1c-0.1,0-0.3,0-0.4-0.1c0,0,0,0,0,0c-1.8-0.3-3.5-0.7-5.3-1.2c-0.2,0-0.3-0.1-0.5-0.1
					c-0.3-0.1-0.6-0.2-0.9-0.2c-0.3-0.1-0.7-0.2-1-0.3c-1.3-0.4-2.7-0.8-4-1.2c-4.2-1.4-8.2-3-12.2-4.9c0,0,0,0,0,0
					c-4.5-2.2-8.9-4.7-13-7.6c-21.2-14.8-36.2-38.5-41-64h1.5c4.8,25.1,19.5,48.4,40.4,62.8c4.5,3.2,9.4,5.9,14.4,8.2c0,0,0,0,0.1,0
					c4.1,1.9,8.3,3.5,12.6,4.7c1.7,0.5,3.5,1,5.2,1.4c1,0.2,2,0.5,2.9,0.7c0.3,0.1,0.6,0.1,0.9,0.2c0.1,0,0.3,0.1,0.4,0.1
					c0.1,0,0.3,0.1,0.4,0.1c0.5,0.1,0.9,0.2,1.4,0.3c0.1,0,0.2,0.1,0.4,0.1c0.2,0,0.3,0.1,0.5,0.1c0,0,0,0,0.1,0
					c0.1,0,0.3,0,0.4,0.1c0.2,0,0.5,0.1,0.7,0.1c0.1,0,0.2,0,0.3,0.1c0.2,0,0.5,0.1,0.7,0.1c0.5,0.1,0.9,0.1,1.3,0.2
					c0.6,0.1,1.1,0.1,1.7,0.2c1.2,0.1,2.5,0.3,3.7,0.4C670.3,139.1,671.7,139.2,673.1,139.2z"/>
			</g>
			<g>
				<path class="st5" d="M673.1,138.5v1.5c-0.5,0-1.1,0-1.6,0c-0.8,0-1.7,0-2.5,0c-0.6,0-1.1,0-1.7-0.1c-0.3,0-0.5,0-0.8,0
					c-1.7-0.1-3.5-0.2-5.2-0.4c-0.2,0-0.4,0-0.6-0.1c-0.1,0-0.2,0-0.4,0c-0.1,0-0.3,0-0.4,0c0,0,0,0,0,0h-0.1
					c-0.4,0-0.9-0.1-1.3-0.2c-0.1,0-0.2,0-0.3,0c-0.6-0.1-1.2-0.2-1.8-0.2c-0.1,0-0.1,0-0.2,0c-0.1,0-0.3,0-0.4-0.1
					c-2.2-0.3-4.3-0.7-6.5-1.2c-0.3-0.1-0.7-0.2-1.1-0.2c-0.7-0.1-1.3-0.3-2-0.5c-1-0.3-2-0.5-3.1-0.8c-4.5-1.3-9-2.9-13.2-4.8
					c0,0,0,0,0,0c-4.3-1.9-8.5-4.2-12.5-6.8c-22.6-14.6-38.8-38.8-44.2-65.2h1.5c5.3,25.9,21.3,49.7,43.5,64c4.6,3,9.4,5.5,14.5,7.6
					c0,0,0,0,0,0c4.6,1.9,9.3,3.5,14.2,4.7c1.5,0.4,3,0.7,4.5,1c1,0.2,2.1,0.4,3.1,0.6c0.5,0.1,1,0.2,1.5,0.2c0.1,0,0.3,0,0.4,0.1
					c0.1,0,0.1,0,0.2,0c0,0,0,0,0,0c0,0,0,0,0,0c0,0,0,0,0,0c0.6,0.1,1.2,0.2,1.7,0.2c0.1,0,0.2,0,0.3,0c0.4,0,0.8,0.1,1.3,0.1
					c0,0,0,0,0.1,0c0.1,0,0.2,0,0.3,0c0.1,0,0.2,0,0.3,0c0.2,0,0.4,0,0.6,0.1c0.2,0,0.4,0,0.7,0.1c0.3,0,0.6,0.1,0.9,0.1
					c0,0,0,0,0,0c0.6,0.1,1.3,0.1,1.9,0.1c0,0,0,0,0,0c0.9,0.1,1.8,0.1,2.7,0.2C669.2,138.5,671.2,138.6,673.1,138.5z"/>
			</g>
			<g>
				<path class="st5" d="M673.1,137.8v1.4c-1.3,0.1-2.5,0.1-3.8,0.2c-0.9,0-1.8,0-2.7,0h0c-0.3,0-0.5,0-0.8,0c-0.1,0-0.3,0-0.4,0
					c-1.5,0-3,0-4.5-0.1c-0.2,0-0.4,0-0.6,0c-0.2,0-0.3,0-0.5,0c-0.1,0-0.1,0-0.2,0c-0.1,0-0.3,0-0.4,0c-0.2,0-0.5,0-0.7-0.1
					c-0.2,0-0.5,0-0.7-0.1c-0.8-0.1-1.6-0.1-2.5-0.2h0c-0.1,0-0.2,0-0.2,0c-2.8-0.3-5.6-0.7-8.3-1.3c-0.7-0.1-1.3-0.3-2-0.4
					c-1.6-0.3-3.2-0.7-4.8-1.1c-4.2-1.1-8.3-2.5-12.3-4.2c-0.1,0-0.2-0.1-0.4-0.1c-4.2-1.7-8.2-3.8-12.1-6.1
					c-24.1-14.3-41.5-39-47.3-66.4h1.5c5.9,26.9,23,51.1,46.6,65.1c4.5,2.7,9.2,5,14.1,6.9c0,0,0,0,0,0c4.9,1.9,9.9,3.4,15,4.5
					c1.9,0.4,3.8,0.8,5.7,1.1c0.8,0.1,1.6,0.3,2.4,0.4c0.7,0.1,1.4,0.2,2.1,0.3h0c0.1,0,0.2,0,0.3,0h0c0.5,0.1,0.9,0.1,1.4,0.2
					c0.4,0,0.8,0.1,1.1,0.1c0.2,0,0.4,0.1,0.6,0.1c0.2,0,0.5,0,0.8,0.1c0.2,0,0.4,0,0.5,0c0,0,0.1,0,0.1,0c0.2,0,0.4,0,0.7,0
					c0.2,0,0.4,0,0.6,0c0.8,0.1,1.7,0.1,2.5,0.1c1,0,1.9,0.1,2.9,0.1c1.8,0,3.5,0,5.3-0.1C672.3,137.9,672.7,137.9,673.1,137.8z"/>
			</g>
			<g>
				<path class="st5" d="M673.1,137.1v1.5c-1.4,0.2-2.9,0.3-4.3,0.4c-0.7,0.1-1.5,0.1-2.2,0.1c-0.5,0-1,0.1-1.5,0.1h-0.4
					c-0.1,0-0.1,0-0.1,0c-0.8,0-1.7,0-2.5,0c-0.5,0-1,0-1.5,0c-0.2,0-0.4,0-0.6,0c-0.2,0-0.4,0-0.6,0c0,0,0,0,0,0c0,0,0,0,0,0h-0.5
					c0,0,0,0,0,0c-0.2,0-0.4,0-0.6,0c-0.1,0-0.3,0-0.4,0c-1.2,0-2.5-0.1-3.7-0.2c0,0,0,0,0,0c0,0,0,0,0,0c-0.5,0-1-0.1-1.5-0.1
					c0,0-0.1,0-0.1,0c-3.2-0.3-6.4-0.8-9.6-1.4c-1.6-0.3-3.2-0.6-4.8-1c-4.7-1.1-9.4-2.6-13.9-4.4c-3.9-1.5-7.7-3.3-11.4-5.3
					c-25.5-14.1-44.1-39.2-50.6-67.5h1.5c6.4,27.8,24.7,52.5,49.8,66.3c4.4,2.4,9,4.5,13.7,6.2c0.1,0.1,0.2,0.1,0.4,0.1
					c5.1,1.8,10.3,3.2,15.6,4.2c1.9,0.3,3.8,0.6,5.7,0.9c1.1,0.1,2.2,0.3,3.3,0.4c0.1,0,0.3,0,0.4,0c0.1,0,0.1,0,0.2,0
					c0.3,0,0.7,0.1,1,0.1c0.1,0,0.2,0,0.3,0c0,0,0,0,0,0c0.5,0.1,1,0.1,1.5,0.1c0.5,0,0.9,0.1,1.3,0.1c0.3,0,0.7,0,1,0
					c0.1,0,0.2,0,0.3,0c0.2,0,0.4,0,0.6,0c0.2,0,0.3,0,0.5,0h0.1c0.2,0,0.5,0,0.7,0c0.2,0,0.4,0,0.6,0c1.7,0,3.5,0,5.2-0.1
					c2-0.1,3.9-0.2,5.8-0.4C672.3,137.2,672.7,137.2,673.1,137.1z"/>
			</g>
			<g>
				<path class="st5" d="M673.1,136.3v1.5c-0.4,0.1-0.8,0.1-1.2,0.2c-1.6,0.2-3.2,0.4-4.7,0.6c-0.7,0.1-1.4,0.1-2.1,0.1
					c-0.3,0-0.6,0.1-1,0.1c-0.3,0-0.5,0-0.8,0c0,0-0.1,0-0.1,0c0,0,0,0,0,0c-1.2,0.1-2.3,0.1-3.5,0.1c-0.2,0-0.5,0-0.7,0
					c-0.2,0-0.5,0-0.8,0c-0.1,0-0.1,0-0.2,0c-0.2,0-0.5,0-0.7,0h-0.1c-0.3,0-0.6,0-0.9,0c-0.3,0-0.7,0-1,0h-0.1c-0.2,0-0.3,0-0.5,0
					c-0.7,0-1.5,0-2.2-0.1c0,0-0.1,0-0.1,0c-5.1-0.2-10.2-0.8-15.3-1.8c-5.3-1-10.5-2.4-15.6-4.3c-3.8-1.4-7.5-3-11.1-4.8
					c-26.5-13.6-46.6-39.7-53.7-68.7h1.5c7.1,28.5,26.9,54.1,52.9,67.4c4.2,2.1,8.5,4,13,5.5c5.1,1.7,10.4,3.1,15.8,3.9
					c2.1,0.3,4.2,0.6,6.3,0.9c1.2,0.1,2.4,0.2,3.6,0.3c0.8,0.1,1.6,0.1,2.4,0.1c0.1,0,0.2,0,0.3,0c0.1,0,0.1,0,0.2,0
					c0.3,0,0.6,0,0.9,0c0.3,0,0.7,0,1,0c0.2,0,0.3,0,0.5,0h0.2c0.3,0,0.7,0,1.1,0c0,0,0,0,0,0c0,0,0,0,0,0c0.3,0,0.6,0,1,0
					c0.2,0,0.5,0,0.7,0c0.1,0,0.2,0,0.3,0c0.3,0,0.5,0,0.8,0c0.2,0,0.5,0,0.7,0C664.5,137.3,668.8,136.9,673.1,136.3z"/>
			</g>
			<g>
				<path class="st5" d="M673.1,135.6v1.5c-0.4,0.1-0.8,0.1-1.2,0.2c-1.7,0.3-3.5,0.6-5.3,0.8c-0.7,0.1-1.4,0.2-2.1,0.2c0,0,0,0,0,0
					c-0.4,0-0.7,0.1-1.1,0.1c-0.2,0-0.3,0-0.5,0c-0.1,0-0.2,0-0.2,0c-0.1,0-0.1,0-0.2,0c-0.1,0-0.1,0-0.2,0c-1,0.1-1.9,0.1-2.9,0.2
					c-0.2,0-0.5,0-0.7,0c-0.2,0-0.5,0-0.8,0c-0.1,0-0.2,0-0.2,0c-0.2,0-0.5,0-0.7,0c-0.3,0-0.5,0-0.8,0c-0.3,0-0.5,0-0.8,0h-0.1
					c-0.4,0-0.7,0-1.1,0c0,0-0.1,0-0.1,0s0,0,0,0c0,0,0,0,0,0c-0.3,0-0.7,0-1,0c-11.4,0-22.8-1.8-33.5-5.4
					c-3.8-1.3-7.6-2.8-11.3-4.5c-27.9-13.2-49.3-39.9-57-69.9h1.5c7.6,29.4,28.7,55.5,56.1,68.5c4.1,2,8.4,3.6,12.8,5
					c5.4,1.7,10.9,2.9,16.4,3.7c2.2,0.3,4.4,0.6,6.7,0.7c1.2,0.1,2.4,0.2,3.6,0.2c0.8,0,1.7,0.1,2.5,0.1c0.6,0,1.3,0,2,0h1.1
					c0.1,0,0.1,0,0.2,0c0,0,0,0,0,0c0.4,0,0.7,0,1.1,0h0.2c0.3,0,0.6,0,0.8,0h0.1c0.2,0,0.5,0,0.7,0c0.2,0,0.5,0,0.7,0h0.3
					c0.3,0,0.5,0,0.8,0c0.2,0,0.5,0,0.7,0C664.2,137,668.7,136.4,673.1,135.6z"/>
			</g>
			<g>
				<path class="st5" d="M673.1,134.8v1.5c-2.3,0.5-4.7,1-7,1.4c-0.8,0.1-1.6,0.2-2.3,0.3c-0.4,0.1-0.8,0.1-1.1,0.2c0,0,0,0,0,0
					c-0.2,0-0.3,0-0.5,0.1c-0.1,0-0.1,0-0.2,0c0,0-0.1,0-0.1,0c-0.1,0-0.2,0-0.2,0c-0.8,0.1-1.7,0.2-2.5,0.3c-0.2,0-0.5,0.1-0.7,0.1
					c-0.2,0-0.5,0.1-0.7,0.1c-0.1,0-0.2,0-0.3,0c-0.2,0-0.5,0-0.7,0.1c0,0,0,0,0,0c-0.2,0-0.5,0-0.8,0.1c-0.3,0-0.5,0-0.8,0
					c-0.1,0-0.2,0-0.3,0c-0.2,0-0.4,0-0.6,0c0,0-0.1,0-0.1,0s0,0,0,0c-1.8,0.1-3.6,0.1-5.4,0.1c-14.7,0-29.4-2.9-42.8-8.8
					c-29.3-13-52-40.1-60.2-71h1.5c8.2,30.4,30.5,57,59.3,69.7c4.2,1.9,8.6,3.4,13,4.7c5.8,1.7,11.7,2.8,17.7,3.4
					c1.9,0.2,3.7,0.3,5.6,0.5c1.3,0.1,2.6,0.1,3.9,0.1c0.9,0,1.7,0,2.6,0c0.7,0,1.3,0,2,0c0.5,0,1.1,0,1.6-0.1c0.3,0,0.6,0,1,0h0
					c0.1,0,0.1,0,0.2,0c0,0,0,0,0,0c0.2,0,0.4,0,0.6,0c0.1,0,0.3,0,0.4,0h0c0.2,0,0.5,0,0.8-0.1c0.1,0,0.2,0,0.3,0
					c0.1,0,0.3,0,0.4,0c0.2,0,0.5,0,0.7-0.1c0.1,0,0.2,0,0.3,0c0.3,0,0.5,0,0.8-0.1c0.2,0,0.5,0,0.7-0.1
					C663.9,136.6,668.6,135.9,673.1,134.8z"/>
			</g>
		</g>
		<g>
			<g>
				<path class="st5" d="M76.9,79.7v1.5h261.8l-14.3,30.6H76.9v1.5h248.4L341,79.7H76.9z"/>
			</g>
			<polygon class="st9" points="319,105.1 76.9,105.1 76.9,73 333.5,73 			"/>
		</g>
		<g>
			<g>
				<g>
					<text transform="matrix(1 0 0 1 100.7098 90.6113)" class="st5 st10 st11">Home</text>
				</g>
				<g>
					<text transform="matrix(1 0 0 1 143.8626 90.6113)" class="st5 st12 st11">Destination</text>
				</g>
				<g>
					<text transform="matrix(1 0 0 1 207.4876 90.6113)" class="st5 st10 st11">Travel Guide</text>
				</g>
				<g>
					<text transform="matrix(1 0 0 1 276.5062 90.6113)" class="st5 st10 st11">FAQ</text>
				</g>
			</g>
		</g>
		<g>
			<g>
				<g>
					<g>
						<rect x="622.2" y="78.4" class="st9" width="5.2" height="5.2"/>
					</g>
					<g>
						<rect x="630.1" y="78.4" class="st9" width="5.2" height="5.2"/>
					</g>
					<g>
						<rect x="638.1" y="78.4" class="st9" width="5.2" height="5.2"/>
					</g>
				</g>
				<g>
					<g>
						<rect x="622.2" y="86.5" class="st9" width="5.2" height="5.2"/>
					</g>
					<g>
						<rect x="630.1" y="86.5" class="st9" width="5.2" height="5.2"/>
					</g>
					<g>
						<rect x="638.1" y="86.5" class="st9" width="5.2" height="5.2"/>
					</g>
				</g>
				<g>
					<g>
						<rect x="622.2" y="94.6" class="st9" width="5.2" height="5.2"/>
					</g>
					<g>
						<rect x="630.1" y="94.6" class="st9" width="5.2" height="5.2"/>
					</g>
					<g>
						<rect x="638.1" y="94.6" class="st9" width="5.2" height="5.2"/>
					</g>
				</g>
			</g>
		</g>
		<g>
			<path class="st5" d="M610.9,89c0,3-1.2,5.6-3.1,7.6c-2,1.9-4.6,3.1-7.6,3.1H439.7c-5.9,0-10.7-4.8-10.7-10.7c0-3,1.2-5.6,3.1-7.6
				c1.9-1.9,4.6-3.1,7.6-3.1h160.5C606.1,78.3,610.9,83.1,610.9,89z"/>
			<path class="st9" d="M600.2,78.3h-16.6v21.5h16.6c3,0,5.6-1.2,7.6-3.1c2-2,3.1-4.6,3.1-7.6C610.9,83.1,606.1,78.3,600.2,78.3z"/>
			<path class="st5" d="M601.1,93.2l-2.6-2.6c1.2-1.8,1-4.1-0.6-5.7c-1.8-1.8-4.6-1.8-6.4,0c-1.8,1.8-1.8,4.6,0,6.4
				c1.5,1.5,3.9,1.7,5.7,0.6l2.6,2.6L601.1,93.2z M592.8,90c-1.1-1.1-1.1-2.8,0-3.8c1.1-1.1,2.8-1.1,3.8,0c1.1,1.1,1.1,2.8,0,3.8
				C595.5,91.1,593.8,91.1,592.8,90z"/>
		</g>
		<g>
			<g>
				<path class="st9" d="M168.5,359.2h-45.2c-6.1,0-11-4.9-11-11l0,0c0-6.1,4.9-11,11-11h45.2c6.1,0,11,4.9,11,11l0,0
					C179.5,354.3,174.6,359.2,168.5,359.2z"/>
				<g>
					<g>
						<text transform="matrix(1 0 0 1 126.0638 351.3062)" class="st5 st10 st13">SIGN UP</text>
					</g>
				</g>
			</g>
			<g>
				<circle class="st14" cx="167.9" cy="384.7" r="4.4"/>
				<circle class="st5" cx="142.3" cy="384.7" r="4.4"/>
				
					<ellipse transform="matrix(0.2669 -0.9637 0.9637 0.2669 -285.1082 394.5516)" class="st14" cx="116.8" cy="384.7" rx="4.4" ry="4.4"/>
			</g>
		</g>
		<g>
			<path class="st3" d="M673.1,295.7h-16.6c-4.7,0-8.5-3.8-8.5-8.5v-74.4c0-4.7,3.8-8.5,8.5-8.5h16.6V295.7z"/>
			<g>
				<g>
					<path class="st9" d="M667,228.7v-1.8h-3.3c-0.3,1.5-1.6,2.5-3.1,2.5c-1.5,0-2.8-1.1-3.1-2.5h-3.3v1.8c0,2.1,1.7,3.8,3.8,3.8
						h5.1C665.2,232.5,667,230.8,667,228.7z"/>
					<path class="st9" d="M660.6,228.2c0.9,0,1.7-0.6,1.9-1.4c0.1-0.2,0.1-0.4,0.1-0.6c0-0.3,0-0.6-0.2-0.8c-0.3-0.7-1-1.2-1.9-1.2
						c-0.8,0-1.5,0.5-1.9,1.2c-0.1,0.2-0.1,0.5-0.1,0.8c0,0.2,0,0.4,0.1,0.6C659,227.7,659.7,228.2,660.6,228.2z"/>
					<path class="st9" d="M663.1,219.7H658c-2.1,0-3.8,1.7-3.8,3.9v1.8h3.4c0.3-1.4,1.6-2.4,3-2.4c1.5,0,2.7,1,3.1,2.4h3.3v-1.8
						C667,221.5,665.2,219.7,663.1,219.7z M664,223.6c-0.4,0-0.8-0.3-0.8-0.8c0-0.4,0.3-0.8,0.8-0.8c0.4,0,0.8,0.3,0.8,0.8
						C664.7,223.3,664.4,223.6,664,223.6z"/>
				</g>
				<path class="st9" d="M661.5,247.2c0,0,0-0.7,0.7-0.7h1.5v-2.3h-2.6c0,0-2,0-2,2.1v2.7h-1.9v2.3h1.9v5.5h2.4v-5.5h1.5l1-2.3h-2.4
					V247.2z"/>
				<path class="st9" d="M665.8,270.8l0.6-1.7l-1.6,1.1c-0.5-0.5-1.3-0.9-2.1-0.9c-1.5,0-2.8,1.1-2.8,2.5c0,0.1,0,0.3,0,0.4
					c0,0.1,0.1,0.2,0.1,0.3v0.1h-5c-0.4,0-0.7,0.3-0.7,0.7v0.1c0,0.4,0.3,0.7,0.7,0.7h1.1c-0.2,0.1-0.4,0.4-0.4,0.6v0.1
					c0,0.4,0.3,0.7,0.7,0.7h1.1c-0.2,0.1-0.4,0.3-0.4,0.6v0.1c0,0.4,0.3,0.7,0.7,0.7h0.8c-2,1.8-5.4,1.6-5.4,1.6
					c1.8,1.4,7.2,2.5,10.1-0.1c3.3-2.9,2.2-6.6,2.2-6.6l1.9-1.2L665.8,270.8z"/>
			</g>
		</g>
		<g class="st4">
			<g>
				<path class="st5" d="M660.8,397.4c1.7,0,3.1-1.4,3.1-3.1c0-1.7-1.4-3.1-3.1-3.1c-1.7,0-3.1,1.4-3.1,3.1
					C657.7,395.9,659.1,397.4,660.8,397.4z"/>
				<path class="st5" d="M660.8,376.4c1.7,0,3.1-1.4,3.1-3.1c0-1.7-1.4-3.1-3.1-3.1c-1.7,0-3.1,1.4-3.1,3.1
					C657.7,375,659.1,376.4,660.8,376.4z"/>
				<path class="st5" d="M657.7,415.2c0,1.7,1.4,3.1,3.1,3.1c1.7,0,3.1-1.4,3.1-3.1c0-1.7-1.4-3.1-3.1-3.1
					C659.1,412,657.7,413.4,657.7,415.2z"/>
				<path class="st5" d="M647.2,404.7c0,1.1,0.6,2,1.4,2.6c0.5,0.3,1.1,0.5,1.8,0.5c1.7,0,3.1-1.4,3.1-3.1c0-1.7-1.4-3.1-3.1-3.1
					c-0.7,0-1.3,0.2-1.8,0.5C647.8,402.7,647.2,403.6,647.2,404.7z"/>
				<path class="st5" d="M648.6,386.3c0.5,0.3,1.1,0.5,1.8,0.5c1.7,0,3.1-1.4,3.1-3.1c0-1.7-1.4-3.1-3.1-3.1c-0.7,0-1.3,0.2-1.8,0.5
					c-0.8,0.6-1.4,1.5-1.4,2.6C647.2,384.8,647.8,385.8,648.6,386.3z"/>
				<path class="st5" d="M629.4,386.9c1.7,0,3.1-1.4,3.1-3.1c0-1.7-1.4-3.1-3.1-3.1c-1.7,0-3.1,1.4-3.1,3.1
					C626.2,385.5,627.7,386.9,629.4,386.9z"/>
				<path class="st5" d="M618.9,397.4c1.7,0,3.1-1.4,3.1-3.1c0-1.7-1.4-3.1-3.1-3.1c-1.7,0-3.1,1.4-3.1,3.1
					C615.8,395.9,617.2,397.4,618.9,397.4z"/>
				<path class="st5" d="M639.9,397.4c1.7,0,3.1-1.4,3.1-3.1c0-1.7-1.4-3.1-3.1-3.1c-1.7,0-3.1,1.4-3.1,3.1
					C636.7,395.9,638.1,397.4,639.9,397.4z"/>
				<path class="st5" d="M618.9,376.4c1.7,0,3.1-1.4,3.1-3.1c0-1.7-1.4-3.1-3.1-3.1c-1.7,0-3.1,1.4-3.1,3.1
					C615.8,375,617.2,376.4,618.9,376.4z"/>
				<path class="st5" d="M639.9,376.4c1.7,0,3.1-1.4,3.1-3.1c0-1.7-1.4-3.1-3.1-3.1c-1.7,0-3.1,1.4-3.1,3.1
					C636.7,375,638.1,376.4,639.9,376.4z"/>
				<path class="st5" d="M611,402.9c-0.6-0.8-1.5-1.4-2.6-1.4c-0.7,0-1.3,0.2-1.8,0.5c-0.8,0.6-1.4,1.5-1.4,2.6c0,1.1,0.5,2,1.4,2.6
					c0.5,0.3,1.1,0.5,1.8,0.5c1.1,0,2-0.6,2.6-1.4c0.3-0.5,0.5-1.1,0.5-1.8C611.6,404,611.4,403.4,611,402.9z"/>
				<path class="st5" d="M615.8,415.2c0,1.7,1.4,3.1,3.1,3.1c1.7,0,3.1-1.4,3.1-3.1c0-1.7-1.4-3.1-3.1-3.1
					C617.2,412,615.8,413.4,615.8,415.2z"/>
				<path class="st5" d="M636.7,415.2c0,1.7,1.4,3.1,3.1,3.1c1.7,0,3.1-1.4,3.1-3.1c0-1.7-1.4-3.1-3.1-3.1
					C638.1,412,636.7,413.4,636.7,415.2z"/>
				<path class="st5" d="M629.4,407.8c1.7,0,3.1-1.4,3.1-3.1c0-1.7-1.4-3.1-3.1-3.1c-1.7,0-3.1,1.4-3.1,3.1
					C626.2,406.4,627.7,407.8,629.4,407.8z"/>
				<path class="st5" d="M606.7,386.3c0.5,0.3,1.1,0.5,1.8,0.5c1.1,0,2-0.5,2.6-1.4c0.3-0.5,0.5-1.1,0.5-1.8c0-0.7-0.2-1.3-0.5-1.8
					c-0.6-0.8-1.5-1.4-2.6-1.4c-0.7,0-1.3,0.2-1.8,0.5c-0.8,0.6-1.4,1.5-1.4,2.6C605.3,384.8,605.8,385.8,606.7,386.3z"/>
				<circle class="st5" cx="587.5" cy="383.7" r="3.1"/>
				<path class="st5" d="M577,397.4c1.7,0,3.1-1.4,3.1-3.1c0-1.7-1.4-3.1-3.1-3.1c-1.7,0-3.1,1.4-3.1,3.1
					C573.8,395.9,575.2,397.4,577,397.4z"/>
				<path class="st5" d="M597.9,397.4c1.7,0,3.1-1.4,3.1-3.1c0-1.7-1.4-3.1-3.1-3.1c-1.7,0-3.1,1.4-3.1,3.1
					C594.8,395.9,596.2,397.4,597.9,397.4z"/>
				<path class="st5" d="M577,376.4c1.7,0,3.1-1.4,3.1-3.1c0-1.7-1.4-3.1-3.1-3.1c-1.7,0-3.1,1.4-3.1,3.1
					C573.8,375,575.2,376.4,577,376.4z"/>
				<path class="st5" d="M597.9,376.4c1.7,0,3.1-1.4,3.1-3.1c0-1.7-1.4-3.1-3.1-3.1c-1.7,0-3.1,1.4-3.1,3.1
					C594.8,375,596.2,376.4,597.9,376.4z"/>
				<path class="st5" d="M569.1,402.9c-0.6-0.8-1.5-1.4-2.6-1.4c-0.7,0-1.3,0.2-1.8,0.5c-0.8,0.6-1.4,1.5-1.4,2.6
					c0,1.1,0.5,2,1.4,2.6c0.5,0.3,1.1,0.5,1.8,0.5c1.1,0,2-0.6,2.6-1.4c0.3-0.5,0.5-1.1,0.5-1.8C569.6,404,569.4,403.4,569.1,402.9z
					"/>
				<path class="st5" d="M573.8,415.2c0,1.7,1.4,3.1,3.1,3.1c1.7,0,3.1-1.4,3.1-3.1c0-1.7-1.4-3.1-3.1-3.1
					C575.2,412,573.8,413.4,573.8,415.2z"/>
				<path class="st5" d="M594.8,415.2c0,1.7,1.4,3.1,3.1,3.1c1.7,0,3.1-1.4,3.1-3.1c0-1.7-1.4-3.1-3.1-3.1
					C596.2,412,594.8,413.4,594.8,415.2z"/>
				<path class="st5" d="M587.5,407.8c1.7,0,3.1-1.4,3.1-3.1c0-1.7-1.4-3.1-3.1-3.1c-1.7,0-3.1,1.4-3.1,3.1
					C584.3,406.4,585.7,407.8,587.5,407.8z"/>
				<path class="st5" d="M564.7,386.3c0.5,0.3,1.1,0.5,1.8,0.5c1.1,0,2-0.5,2.6-1.4c0.3-0.5,0.5-1.1,0.5-1.8c0-0.7-0.2-1.3-0.5-1.8
					c-0.6-0.8-1.5-1.4-2.6-1.4c-0.7,0-1.3,0.2-1.8,0.5c-0.8,0.6-1.4,1.5-1.4,2.6C563.3,384.8,563.9,385.8,564.7,386.3z"/>
				<circle class="st5" cx="545.5" cy="383.7" r="3.1"/>
				<path class="st5" d="M535,397.4c1.7,0,3.1-1.4,3.1-3.1c0-1.7-1.4-3.1-3.1-3.1c-1.7,0-3.1,1.4-3.1,3.1
					C531.9,395.9,533.3,397.4,535,397.4z"/>
				<path class="st5" d="M556,397.4c1.7,0,3.1-1.4,3.1-3.1c0-1.7-1.4-3.1-3.1-3.1c-1.7,0-3.1,1.4-3.1,3.1
					C552.9,395.9,554.3,397.4,556,397.4z"/>
				<path class="st5" d="M535,376.4c1.7,0,3.1-1.4,3.1-3.1c0-1.7-1.4-3.1-3.1-3.1c-1.7,0-3.1,1.4-3.1,3.1
					C531.9,375,533.3,376.4,535,376.4z"/>
				<path class="st5" d="M556,376.4c1.7,0,3.1-1.4,3.1-3.1c0-1.7-1.4-3.1-3.1-3.1c-1.7,0-3.1,1.4-3.1,3.1
					C552.9,375,554.3,376.4,556,376.4z"/>
				<path class="st5" d="M526.8,402.5c-0.6-0.6-1.4-0.9-2.2-0.9c-0.7,0-1.3,0.2-1.8,0.5c-0.8,0.6-1.4,1.5-1.4,2.6
					c0,1.1,0.5,2,1.4,2.6c0.5,0.3,1.1,0.5,1.8,0.5c0.9,0,1.7-0.4,2.2-0.9c0.6-0.6,0.9-1.4,0.9-2.2
					C527.7,403.8,527.3,403,526.8,402.5z"/>
				<path class="st5" d="M531.9,415.2c0,1.7,1.4,3.1,3.1,3.1c1.7,0,3.1-1.4,3.1-3.1c0-1.7-1.4-3.1-3.1-3.1
					C533.3,412,531.9,413.4,531.9,415.2z"/>
				<path class="st5" d="M552.9,415.2c0,1.7,1.4,3.1,3.1,3.1c1.7,0,3.1-1.4,3.1-3.1c0-1.7-1.4-3.1-3.1-3.1
					C554.3,412,552.9,413.4,552.9,415.2z"/>
				<path class="st5" d="M545.5,407.8c1.7,0,3.1-1.4,3.1-3.1c0-1.7-1.4-3.1-3.1-3.1c-1.7,0-3.1,1.4-3.1,3.1
					C542.4,406.4,543.8,407.8,545.5,407.8z"/>
				<path class="st5" d="M522.8,386.3c0.5,0.3,1.1,0.5,1.8,0.5c0.9,0,1.7-0.4,2.2-0.9c0.6-0.6,0.9-1.4,0.9-2.2
					c0-0.9-0.4-1.7-0.9-2.2s-1.4-0.9-2.2-0.9c-0.7,0-1.3,0.2-1.8,0.5c-0.8,0.6-1.4,1.5-1.4,2.6C521.4,384.8,522,385.8,522.8,386.3z"
					/>
				<circle class="st5" cx="503.6" cy="383.7" r="3.1"/>
				<path class="st5" d="M493.1,397.4c1.7,0,3.1-1.4,3.1-3.1c0-1.7-1.4-3.1-3.1-3.1c-1.7,0-3.1,1.4-3.1,3.1
					C490,395.9,491.4,397.4,493.1,397.4z"/>
				<path class="st5" d="M514.1,397.4c1.7,0,3.1-1.4,3.1-3.1c0-1.7-1.4-3.1-3.1-3.1c-1.7,0-3.1,1.4-3.1,3.1
					C510.9,395.9,512.3,397.4,514.1,397.4z"/>
				<path class="st5" d="M493.1,376.4c1.7,0,3.1-1.4,3.1-3.1c0-1.7-1.4-3.1-3.1-3.1c-1.7,0-3.1,1.4-3.1,3.1
					C490,375,491.4,376.4,493.1,376.4z"/>
				<path class="st5" d="M514.1,376.4c1.7,0,3.1-1.4,3.1-3.1c0-1.7-1.4-3.1-3.1-3.1c-1.7,0-3.1,1.4-3.1,3.1
					C510.9,375,512.3,376.4,514.1,376.4z"/>
				<path class="st5" d="M490,415.2c0,1.7,1.4,3.1,3.1,3.1c1.7,0,3.1-1.4,3.1-3.1c0-1.7-1.4-3.1-3.1-3.1
					C491.4,412,490,413.4,490,415.2z"/>
				<path class="st5" d="M510.9,415.2c0,1.7,1.4,3.1,3.1,3.1c1.7,0,3.1-1.4,3.1-3.1c0-1.7-1.4-3.1-3.1-3.1
					C512.3,412,510.9,413.4,510.9,415.2z"/>
				<path class="st5" d="M503.6,407.8c1.7,0,3.1-1.4,3.1-3.1c0-1.7-1.4-3.1-3.1-3.1c-1.7,0-3.1,1.4-3.1,3.1
					C500.4,406.4,501.9,407.8,503.6,407.8z"/>
			</g>
		</g>
		<g class="st8">
			<g>
				<path class="st5" d="M459.9,440.8h-1.5c-2-7.5-5.9-14.4-11.4-20c-8.5-8.7-20.3-13.7-32.5-13.8c-0.2,0-0.4,0-0.6,0
					c-3.6,0.1-7.3,0.5-10.9,0.9c-4.3,0.5-8.7,1.1-13.1,0.9c-1,0-1.9-0.1-2.9-0.2c-9.6-1.1-19-6.1-29.7-15.7
					c-2.6-2.3-5.1-4.8-7.6-7.2c-5.5-5.3-11.1-10.8-17.5-15c-17.1-11.3-40.6-14.3-62.8-7.8c-19.2,5.5-37.5,17.4-54.4,35.2
					c-12.2,12.9-22.4,27.5-32.2,42.7H181c10-15.5,20.4-30.4,32.9-43.7c17.1-18,35.6-30,55-35.6c22.7-6.6,46.6-3.6,64,8
					c6.5,4.3,12.2,9.9,17.8,15.2c2.4,2.4,5,4.8,7.6,7.1c10.5,9.4,19.6,14.3,28.9,15.3c5.2,0.6,10.5-0.1,15.7-0.7
					c3.8-0.5,7.7-1,11.7-0.9c12.6,0,24.8,5.2,33.5,14.2C453.8,425.7,457.9,433,459.9,440.8z"/>
			</g>
			<g>
				<path class="st5" d="M456.2,440.8h-1.5c-2-7.2-5.8-13.8-10.9-19.1c-3.1-3.3-6.8-6-10.9-8.2c-6.3-3.3-13.5-5.1-20.6-5.1h-0.1
					c-0.2,0-0.3,0-0.5,0h-0.2c-3.5,0.1-7.1,0.5-10.6,0.9c-4.2,0.5-8.5,1-12.7,0.9c-0.9,0-1.9-0.1-2.8-0.2c-4.4-0.5-8.9-1.8-13.3-3.9
					c-5-2.4-10.2-6-15.8-10.9c-2.5-2.2-5-4.6-7.4-6.9c-5.4-5.1-11-10.4-17.3-14.4c-16.6-10.6-39.6-12.6-61.6-5.4
					c-17.9,5.9-35.3,17.7-50.4,34.1c-10.7,11.6-19.6,24.6-28.2,38.1h-1.7c8.8-13.9,18-27.2,28.9-39.1c15.2-16.6,32.9-28.6,51-34.6
					c22.3-7.4,45.8-5.3,62.8,5.6c6.4,4.1,12.1,9.5,17.5,14.6c2.4,2.3,4.9,4.6,7.4,6.8c5.5,4.9,10.6,8.4,15.5,10.7
					c4.3,2.1,8.6,3.3,12.8,3.8c1.4,0.1,2.9,0.2,4.3,0.2c3.6,0,7.3-0.5,10.9-0.9c3.7-0.5,7.6-0.9,11.4-0.9h0.1c0.5,0,1.1,0,1.6,0
					c6.9,0.2,13.6,2,19.7,5.2c4.2,2.2,8,5.1,11.3,8.4C450.3,426.3,454.2,433.3,456.2,440.8z"/>
			</g>
			<g>
				<path class="st5" d="M452.5,440.8H451c-2.1-6.8-5.6-13.1-10.4-18.1c-3.1-3.2-6.6-5.9-10.6-8c-6.1-3.2-13-4.9-20.2-4.8h-0.3
					c-3.5,0-7.1,0.5-10.6,0.9c-4.2,0.5-8.5,1-12.7,0.9c-0.8,0-1.6-0.1-2.4-0.1c-4.3-0.4-8.7-1.6-13-3.6c-5-2.3-9.9-5.6-15.5-10.4
					c-2.5-2.1-4.9-4.4-7.3-6.6c-5.3-4.9-10.8-10-17-13.9c-16.2-10-38.8-11.1-60.4-3c-16.8,6.3-32.9,17.7-46.4,33.1
					c-9.1,10.3-16.9,21.7-24.3,33.6h-1.7c7.6-12.2,15.6-24,24.9-34.5c13.7-15.5,30-27.1,47-33.5c22-8.2,45.1-7.1,61.6,3.1
					c6.3,3.9,11.9,9.1,17.2,14c2.3,2.2,4.8,4.4,7.2,6.5c5.5,4.7,10.3,8,15.2,10.2c4.1,1.9,8.3,3.1,12.5,3.5c1.4,0.1,2.8,0.2,4.3,0.1
					c3.5,0,7.1-0.5,10.5-0.9c3.6-0.4,7.4-0.9,11.1-0.9c0.6,0,1.1,0,1.7,0h0.2c6.7,0.2,13.2,1.9,19,5c4.1,2.1,7.8,4.9,10.9,8.2
					C446.7,427,450.4,433.6,452.5,440.8z"/>
			</g>
			<g>
				<path class="st5" d="M448.8,440.8h-1.5c-2.1-6.5-5.4-12.5-9.8-17.2c-3-3.2-6.4-5.8-10.2-7.8c-5.8-3-12.6-4.6-19.5-4.5h-0.1
					c-3.5,0-7.2,0.5-10.7,0.9c-4.3,0.5-8.6,1.1-13,0.9h-0.1c-0.5,0-1.1-0.1-1.6-0.1c-4.3-0.3-8.5-1.4-12.7-3.3
					c-4.8-2.1-9.7-5.3-15.2-9.9c-2.4-2-4.8-4.2-7.1-6.3c-5.2-4.7-10.6-9.6-16.7-13.2c-16.1-9.5-37.7-9.7-59.2-0.6
					c-15.7,6.7-30.4,17.7-42.4,32c-7.6,9-14.2,18.8-20.4,29h-1.7c6.4-10.6,13.2-20.7,21.1-30c12.2-14.4,27.1-25.6,43-32.4
					c21.9-9.3,44-9.1,60.5,0.7c6.2,3.7,11.7,8.6,17,13.4c2.3,2.1,4.6,4.2,7,6.2c5.4,4.5,10.1,7.6,14.9,9.7c4,1.8,8.1,2.8,12.2,3.1
					c1.3,0.1,2.5,0.1,3.8,0.1c3.5-0.1,7-0.5,10.5-0.9c3.6-0.4,7.2-0.9,10.8-0.9c0.7,0,1.4,0,2,0c6.5,0.2,12.8,1.8,18.3,4.7
					c4,2.1,7.5,4.8,10.6,8.1C443.2,427.6,446.7,433.9,448.8,440.8z"/>
			</g>
			<g>
				<path class="st5" d="M445.1,440.8h-1.5c-2.1-6.2-5.2-11.8-9.3-16.2c-2.9-3.1-6.2-5.6-9.9-7.6c-5.7-2.9-12.1-4.4-19.1-4.3h0
					c-3.5,0.1-7,0.5-10.4,0.9c-4.2,0.5-8.5,1-12.7,0.9H382c-0.4,0-0.9,0-1.3-0.1c-4.2-0.3-8.4-1.3-12.4-2.9c-4.7-2-9.5-5-14.9-9.4
					c-2.3-1.9-4.7-4-6.9-5.9c-5.2-4.6-10.5-9.3-16.5-12.7c-22.5-12.7-48-3-57.9,1.8c-14.5,7-27.8,17.7-38.5,30.9
					c-6.2,7.6-11.6,15.9-16.7,24.5h-1.7c5.3-8.9,10.9-17.5,17.3-25.4c10.8-13.4,24.2-24.2,39-31.3c21.4-10.4,43-11,59.3-1.8
					c6.1,3.5,11.5,8.2,16.7,12.8c2.2,2,4.5,4,6.8,5.9c5.3,4.4,10,7.3,14.6,9.2c3.8,1.6,7.8,2.6,11.9,2.8c1,0.1,2,0.1,3.1,0.1h0.1
					c3.6,0,7.2-0.5,10.7-0.9c3.5-0.4,7-0.9,10.6-0.9c0.8,0,1.6,0,2.3,0h0.1c6.3,0.2,12.1,1.7,17.3,4.4c3.8,2,7.3,4.6,10.3,7.9
					C439.6,428.3,443,434.3,445.1,440.8z"/>
			</g>
			<g>
				<path class="st5" d="M441.4,440.8h-1.6c-2-5.9-5-11.2-8.8-15.2c-2.8-3-6-5.5-9.6-7.4c-5.3-2.7-11.4-4.1-18.2-4h-0.4
					c-3.4,0.1-6.8,0.5-10.2,0.9c-4.2,0.5-8.5,1-12.7,0.9c-0.3,0-0.6,0-0.9,0c-4.1-0.2-8.2-1.1-12-2.6c-4.6-1.8-9.3-4.6-14.6-8.9
					c-2.3-1.8-4.5-3.8-6.7-5.6c-5.1-4.4-10.3-8.9-16.2-12.1c-15.4-8.3-36.6-6.8-56.7,4.3c-13.3,7.3-25.2,17.6-34.5,29.8
					c-4.8,6.3-9.1,13-13.1,19.9h-1.7c4.2-7.3,8.7-14.3,13.7-20.8c9.4-12.4,21.5-22.8,34.9-30.2c9.8-5.4,35.2-16.6,58.1-4.3
					c6,3.3,11.3,7.8,16.5,12.2c2.2,1.9,4.4,3.8,6.7,5.6c5.2,4.2,9.8,6.9,14.2,8.7c3.7,1.5,7.6,2.3,11.6,2.5c0.9,0.1,1.9,0.1,2.8,0.1
					h0.1c3.5-0.1,7-0.5,10.5-0.9c3.4-0.4,6.9-0.8,10.3-0.9c0.8,0,1.6,0,2.3,0h0c6.2,0.2,11.9,1.6,16.9,4.1c3.7,1.9,7.1,4.5,10,7.7
					C436.1,429,439.3,434.6,441.4,440.8z"/>
			</g>
			<g>
				<path class="st5" d="M437.6,440.8h-1.5c-2-5.6-4.8-10.4-8.2-14.3c-2.7-3-5.8-5.4-9.2-7.1c-5-2.5-10.8-3.8-17.3-3.7
					c-0.2,0-0.5,0-0.7,0c-3.3,0.1-6.7,0.5-9.9,0.9c-4.1,0.5-8.3,1-12.4,0.9c-0.2,0-0.5,0-0.7,0c-4.1-0.2-8-0.9-11.7-2.3
					c-4.5-1.6-9-4.3-14.3-8.4c-2.2-1.7-4.4-3.6-6.6-5.3c-5-4.2-10.1-8.5-15.9-11.5c-15.4-7.9-36.2-5.4-55.5,6.7
					c-12.1,7.6-22.3,17.2-30.5,28.7c-3.5,4.9-6.7,10.1-9.7,15.4h-1.7c3.2-5.6,6.5-11.1,10.2-16.3c8.3-11.7,18.7-21.5,30.9-29.1
					c19.8-12.3,41-14.9,56.9-6.7c5.9,3,11.2,7.4,16.2,11.6c2.1,1.8,4.3,3.6,6.5,5.3c5.1,4,9.6,6.6,13.9,8.2
					c3.6,1.3,7.4,2.1,11.3,2.2c0.8,0,1.6,0,2.5,0c3.5,0,7-0.5,10.5-0.9c3.3-0.4,6.7-0.8,10.1-0.9c0.9,0,1.8,0,2.7,0
					c5.9,0.2,11.3,1.4,16,3.8c3.6,1.8,6.9,4.4,9.7,7.5C432.6,429.7,435.6,434.9,437.6,440.8z"/>
			</g>
			<g>
				<path class="st5" d="M433.9,440.8h-1.5c-1.7-4.7-4.2-9.4-7.7-13.3c-2.6-2.9-5.6-5.3-8.9-6.9c-4.7-2.4-10.2-3.5-16.6-3.4
					c-0.3,0-0.5,0-0.8,0c-3.2,0.1-6.5,0.5-9.7,0.9c-4,0.5-8.1,1-12.2,0.9h-0.5c-4-0.1-7.9-0.8-11.4-2c-4.4-1.5-8.9-4-14-7.9
					c-2.2-1.6-4.3-3.3-6.4-5c-4.9-4-10-8.1-15.7-10.9c-15.5-7.6-35.8-4.2-54.3,9.1c-10.6,7.6-19.5,16.9-26.5,27.6
					c-2.3,3.5-4.5,7.2-6.5,10.9h-1.6c2.2-4,4.5-7.9,6.9-11.7c7.1-10.9,16.2-20.3,26.9-28c18.9-13.5,39.7-17,55.7-9.2
					c5.8,2.8,11,7,15.9,11.1c2.1,1.7,4.2,3.4,6.3,5c5.1,3.8,9.4,6.2,13.6,7.6c3.4,1.2,7.1,1.8,11,1.9c0.7,0,1.5,0,2.3,0
					c3.4-0.1,6.8-0.5,10.2-0.9c3.2-0.4,6.6-0.8,9.8-0.9c1,0,2.1,0,3.1,0c5.7,0.2,10.7,1.3,15.1,3.6c3.5,1.8,6.6,4.2,9.3,7.3
					C429.5,430.8,432.1,435.9,433.9,440.8z"/>
			</g>
			<g>
				<path class="st5" d="M430.1,440.8h-1.6c-1.9-4.9-4.3-9.1-7.1-12.4c-2.5-2.9-5.4-5.1-8.6-6.7c-4.3-2.2-9.2-3.2-15.1-3.2
					c-0.6,0-1.2,0-1.7,0c-3.1,0.1-6.3,0.5-9.5,0.9c-4,0.5-8.1,1-12.1,0.9c-0.1,0-0.3,0-0.5,0c-3.9-0.1-7.4-0.6-10.6-1.6
					c-4.4-1.3-8.6-3.6-13.7-7.3c-2.1-1.5-4.2-3.1-6.2-4.7c-4.8-3.8-9.8-7.7-15.4-10.3c-18.6-8.5-39.6,0.3-53,11.5
					c-9,7.5-16.6,16.4-22.6,26.6c-1.2,2.1-2.4,4.2-3.5,6.4h-1.6c1.2-2.4,2.5-4.8,3.9-7.1c6.1-10.3,13.8-19.4,22.9-27
					c13.8-11.4,35.3-20.5,54.6-11.7c5.7,2.6,10.8,6.6,15.7,10.5c2,1.6,4.1,3.2,6.1,4.7c5,3.6,9.1,5.8,13.3,7.1
					c3.3,1,6.8,1.5,10.7,1.6c0.5,0,1,0,1.6,0h0.5c3.3-0.1,6.7-0.5,9.9-0.9c3.2-0.4,6.4-0.8,9.6-0.9c1.1,0,2.1-0.1,3.2,0
					c5.5,0.1,10.3,1.2,14.4,3.3c3.4,1.7,6.4,4.1,9,7.1C425.6,431.1,428.2,435.5,430.1,440.8z"/>
			</g>
			<g>
				<path class="st5" d="M426.4,440.8h-1.6c-1.8-4.6-4-8.4-6.6-11.4c-2.4-2.8-5.1-5-8.2-6.5c-3.9-2-8.4-2.9-13.9-2.9
					c0,0-0.1,0-0.1,0c-0.8,0-1.5,0-2.3,0.1c-3.1,0.1-6.2,0.5-9.3,0.9c-3.8,0.5-7.7,0.9-11.6,1c-0.4,0-0.9,0-1.3,0
					c-3.5-0.1-6.6-0.5-9.5-1.3c-4.2-1.2-8.4-3.3-13.5-6.8c-2-1.4-4-2.9-6-4.4c-4.8-3.6-9.7-7.3-15.1-9.7c-18-7.7-39,1.4-51.8,13.8
					c-7.3,7.1-13.6,15.7-18.6,25.5c-0.3,0.6-0.6,1.2-0.9,1.8h-1.6c0.4-0.8,0.8-1.7,1.2-2.5c5.1-10,11.5-18.7,18.9-25.9
					c12.2-11.8,33.5-22.6,53.4-14.1c5.6,2.4,10.6,6.2,15.4,9.9c1.9,1.5,3.9,3,6,4.4c4.9,3.4,8.9,5.5,13,6.6
					c3.1,0.9,6.5,1.3,10.4,1.3c0.4,0,0.8,0,1.1,0c3.4-0.1,6.9-0.5,10.3-0.9c3.1-0.4,6.3-0.8,9.4-0.9c1.4-0.1,2.8-0.1,4.1,0
					c5,0.2,9.2,1.2,12.9,3c3.2,1.6,6.2,3.9,8.7,6.9C422.1,431.7,424.4,435.8,426.4,440.8z"/>
			</g>
			<g>
				<path class="st5" d="M422.6,440.8H421c-2.9-7.2-7.1-13.4-13.9-16.8c-7.6-3.7-16-2.7-25-1.7c-7.1,0.9-14.5,1.7-21.4,0
					c-7.1-1.8-13.2-6.2-19-10.5c-4.7-3.4-9.5-6.9-14.9-9.1c-18.7-7.5-39.3,3.2-50.6,16.2c-5.6,6.5-9.9,13.9-13.4,21.8h-1.6
					c3.6-8.1,8.1-15.9,13.9-22.7c11.6-13.4,32.9-24.4,52.2-16.6c5.5,2.2,10.4,5.8,15.2,9.3c5.7,4.2,11.6,8.5,18.5,10.2
					c3.4,0.8,6.9,1,10.4,0.9c3.5-0.1,7-0.5,10.5-0.9c4.6-0.6,9.4-1.1,13.9-1c0.1,0,0.1,0,0.1,0c4,0.2,8,0.9,11.7,2.8
					C415.1,426.4,419.6,433.1,422.6,440.8z"/>
			</g>
		</g>
	</g>
</g>
</svg>
