<svg width="26" height="27" viewBox="0 0 26 27" fill="none" xmlns="http://www.w3.org/2000/svg">
<path d="M13.1073 0C9.53347 0 9.08807 0.0172571 7.68942 0.0764245C6.28502 0.145453 5.33506 0.363222 4.49685 0.688642C3.63235 1.02721 2.89605 1.47672 2.16878 2.20809C1.43659 2.93536 0.982973 3.67166 0.649335 4.53616C0.323915 5.37437 0.106146 6.32433 0.0371178 7.72873C-0.0261583 9.1282 -0.0393066 9.57278 -0.0393066 13.1467C-0.0393066 16.7205 -0.0220495 17.1659 0.0371178 18.5646C0.106146 19.9649 0.323915 20.9189 0.649335 21.7571C0.987904 22.6216 1.43741 23.3579 2.16878 24.0852C2.89605 24.8174 3.63235 25.271 4.49685 25.6047C5.33506 25.926 6.28913 26.1478 7.68942 26.2169C9.0889 26.2802 9.53347 26.2933 13.1073 26.2933C16.6812 26.2933 17.1266 26.276 18.5253 26.2169C19.9256 26.1478 20.8796 25.9252 21.7178 25.6047C22.5823 25.2661 23.3186 24.8166 24.0459 24.0852C24.7781 23.3579 25.2317 22.6257 25.5654 21.7571C25.8867 20.9189 26.1085 19.9649 26.1776 18.5646C26.2408 17.1651 26.254 16.7205 26.254 13.1467C26.254 9.57278 26.2367 9.12738 26.1776 7.72873C26.1085 6.32844 25.8858 5.36943 25.5654 4.53616C25.2268 3.67166 24.7773 2.93536 24.0459 2.20809C23.3186 1.4759 22.5864 1.02228 21.7178 0.688642C20.8796 0.363222 19.9256 0.145453 18.5253 0.0764245C17.1258 0.0131483 16.6812 0 13.1073 0ZM13.1073 2.36669C16.6171 2.36669 17.0362 2.38395 18.4234 2.44312C19.7029 2.50311 20.3997 2.71677 20.8624 2.89756C21.4795 3.13669 21.9109 3.41938 22.3777 3.88121C22.8354 4.33894 23.1181 4.7753 23.3573 5.39244C23.538 5.8551 23.7517 6.55196 23.8117 7.83145C23.8709 9.2186 23.8881 9.63852 23.8881 13.1475C23.8881 16.6564 23.8709 17.0763 23.8068 18.4635C23.7377 19.743 23.5241 20.4398 23.3441 20.9025C23.0951 21.5196 22.8174 21.9511 22.3588 22.4178C21.8962 22.8756 21.4557 23.1583 20.8435 23.3974C20.3866 23.5782 19.6798 23.7918 18.3954 23.8518C17.0009 23.911 16.59 23.9283 13.0712 23.9283C9.55237 23.9283 9.14231 23.911 7.74613 23.8469C6.46663 23.7779 5.76074 23.5642 5.29808 23.3842C4.67354 23.1352 4.24539 22.8575 3.78685 22.3989C3.32419 21.9363 3.03 21.4958 2.80319 20.8836C2.61911 20.4267 2.40874 19.72 2.34053 18.4356C2.29369 17.0574 2.27151 16.6301 2.27151 13.1278C2.27151 9.62702 2.29369 9.19888 2.34053 7.80351C2.40874 6.51909 2.61911 5.81401 2.80319 5.35546C3.03 4.7301 3.32501 4.30278 3.78685 3.84012C4.24457 3.3824 4.67354 3.08656 5.29808 2.85482C5.76074 2.67486 6.44938 2.4612 7.7338 2.3971C9.12834 2.34697 9.53923 2.32889 13.0531 2.32889L13.1073 2.36669ZM13.1073 6.39911C9.37569 6.39911 6.35816 9.42075 6.35816 13.1483C6.35816 16.8799 9.3798 19.8975 13.1073 19.8975C16.839 19.8975 19.8565 16.8758 19.8565 13.1483C19.8565 9.41664 16.8349 6.39911 13.1073 6.39911ZM13.1073 17.5308C10.6848 17.5308 8.72485 15.5709 8.72485 13.1483C8.72485 10.7257 10.6848 8.7658 13.1073 8.7658C15.5299 8.7658 17.4898 10.7257 17.4898 13.1483C17.4898 15.5709 15.5299 17.5308 13.1073 17.5308ZM21.7063 6.12957C21.7063 7.00311 20.9955 7.70819 20.1261 7.70819C19.2525 7.70819 18.5475 7.00229 18.5475 6.12957C18.5475 5.26096 19.2575 4.55424 20.1261 4.55424C20.9947 4.55424 21.7063 5.26096 21.7063 6.12957Z" fill="white"/>
</svg>
