<svg width="26" height="25" viewBox="0 0 26 25" fill="none" xmlns="http://www.w3.org/2000/svg">
<path d="M6.55732 25H1.3741V8.30893H6.55732V25ZM3.96259 6.03214C2.30538 6.03214 0.960693 4.65893 0.960693 3.00179C0.960693 1.34464 2.30449 0 3.96259 0C5.62068 0 6.96448 1.34375 6.96448 3.00179C6.96448 4.65893 5.61979 6.03214 3.96259 6.03214ZM25.9562 25H20.7846V16.875C20.7846 14.9384 20.7453 12.4554 18.0899 12.4554C15.3951 12.4554 14.9817 14.5589 14.9817 16.7357V25H9.80387V8.30893H14.7746V10.5857H14.8469C15.5389 9.27411 17.2291 7.89018 19.7507 7.89018C24.9964 7.89018 25.9607 11.3446 25.9607 15.8313V25H25.9562Z" fill="white"/>
</svg>
